<svg id="Layer_1" data-name="Layer 1" xmlns="http://www.w3.org/2000/svg" viewBox="0 0 1569.64 1718.33"><defs><style>.cls-1{fill:#007bff;}.cls-2{fill:#fdfdfd;}</style></defs><path class="cls-1" d="M1180,104.14c-3.35,0-670.13-.14-673.43.24-159,5.47-287.81,139.12-287.81,299.67v.54c0,1112.14-1.11,1121.25,2.13,1130.16,6.35,159,137.08,287.69,297.73,287.69,164.3,0,298-134.54,298-299.91,0-.2,0-79.14,0-79.32V1328.54H1180c335.37,0,608.21-274.64,608.21-612.21S1515.37,104.14,1180,104.14Zm-2.11,566.37a47.85,47.85,0,0,1,47.63,48c0,21.8-15.62,48-53.51,48l-319.6.18-.2-96.11Zm2.11,586.9c-174.44,0-533-2.83-658,7.62-73,6.14-142.8,28.36-192.25,69.91-16,13.42-40.31,2.11-40.31-18.74v-316a25.62,25.62,0,0,1,.24-3.5c20.79-150.18,173.54-159.49,278.26-159.49l599.65-.6c.64,0,1.26,0,1.89-.07,108.87-7.82,186.63-64.55,230.79-145.61,74.78-137.24,54.33-316.49-58-441.56-17.3-19.25,2.69-48.65,26.88-39.46C1572.48,287.1,1717.53,485,1717.53,716.33,1717.53,1014.68,1476.4,1257.41,1180,1257.41ZM742.56,393.65c0,123.18-99.86,223-223,223s-223-99.85-223-223,99.86-223,223-223S742.56,270.46,742.56,393.65Z" transform="translate(-218.57 -104.11)"/><path class="cls-1" d="M483.17,287.57h9.88v5.82h41.22v-5.82h9.85a52.56,52.56,0,0,1,6.57,5.82h27.06V284.5H449.58v8.89h27A52.56,52.56,0,0,1,483.17,287.57Z" transform="translate(-218.57 -104.11)"/><path class="cls-1" d="M577.75,296.89h-24a69.6,69.6,0,0,1,8.61,13.52h15.35Z" transform="translate(-218.57 -104.11)"/><path class="cls-1" d="M564,313.91a85.07,85.07,0,0,1,4.5,13.52h9.24V313.91Z" transform="translate(-218.57 -104.11)"/><path class="cls-1" d="M571,344.45h6.77V330.93h-8.47A95,95,0,0,1,571,344.45Z" transform="translate(-218.57 -104.11)"/><path class="cls-1" d="M473.5,296.89H449.58v13.52h15.31A68.67,68.67,0,0,1,473.5,296.89Z" transform="translate(-218.57 -104.11)"/><path class="cls-1" d="M463.28,313.91h-13.7v13.52h9.2A84.08,84.08,0,0,1,463.28,313.91Z" transform="translate(-218.57 -104.11)"/><path class="cls-1" d="M458,330.93h-8.43v13.52h6.73A93.53,93.53,0,0,1,458,330.93Z" transform="translate(-218.57 -104.11)"/><rect class="cls-1" x="274.48" y="277.87" width="41.22" height="13.52"/><rect class="cls-1" x="274.48" y="260.85" width="41.22" height="13.52"/><rect class="cls-1" x="274.48" y="192.77" width="41.22" height="13.52"/><rect class="cls-1" x="274.48" y="226.81" width="41.22" height="13.52"/><rect class="cls-1" x="274.48" y="209.79" width="41.22" height="13.52"/><rect class="cls-1" x="274.48" y="243.83" width="41.22" height="13.52"/><rect class="cls-1" x="274.48" y="294.89" width="41.22" height="13.52"/><polygon class="cls-1" points="274.48 317.88 256.57 317.88 256.57 321.95 274.48 321.95 315.7 321.95 333.61 321.95 333.61 317.88 315.7 317.88 315.7 311.91 274.48 311.91 274.48 317.88"/><path class="cls-1" d="M597.36,293.39h40.2v-6.84h17.33a6.59,6.59,0,0,1,6.57,6.57v.27H687c-10.34-6.62-23.23-8.89-28.27-8.89H584v2.34h13.4Z" transform="translate(-218.57 -104.11)"/><path class="cls-1" d="M661.46,310.41h39.11a28,28,0,0,0-8.92-13.52H661.46Z" transform="translate(-218.57 -104.11)"/><rect class="cls-1" x="378.79" y="192.77" width="40.2" height="13.52"/><rect class="cls-1" x="378.79" y="209.79" width="40.2" height="13.52"/><rect class="cls-1" x="378.79" y="260.85" width="40.2" height="13.52"/><path class="cls-1" d="M701.59,318.32a28.66,28.66,0,0,0-.29-4.41H661.46v13.52h38.72A31.71,31.71,0,0,0,701.59,318.32Z" transform="translate(-218.57 -104.11)"/><rect class="cls-1" x="378.79" y="226.81" width="40.2" height="13.52"/><rect class="cls-1" x="378.79" y="294.89" width="40.2" height="13.52"/><path class="cls-1" d="M662.17,412.53h29.36A36.82,36.82,0,0,0,702,399h-39.8Z" transform="translate(-218.57 -104.11)"/><path class="cls-1" d="M662.17,416.66a6.69,6.69,0,0,1-6.76,6.57H637.56V416h-40.2v7H584v3.05h73.11c8.2,0,20-3.52,29.79-10H662.17Z" transform="translate(-218.57 -104.11)"/><path class="cls-1" d="M662.17,395.51h41a26.73,26.73,0,0,0,1-7.16,30.06,30.06,0,0,0-.67-6.37H662.17Z" transform="translate(-218.57 -104.11)"/><path class="cls-1" d="M662.17,378.49h40.29A30,30,0,0,0,692,365H662.17Z" transform="translate(-218.57 -104.11)"/><path class="cls-1" d="M654.89,350.54H637.56V348h-40.2v13.52h40.2v-6.55h17.85a6.69,6.69,0,0,1,6.76,6.55H686.6a67.31,67.31,0,0,0-23.12-7.34c-4.66-.44-5.09-3.65.44-4.08a64.54,64.54,0,0,0,11.87-2.1H660.1A6.57,6.57,0,0,1,654.89,350.54Z" transform="translate(-218.57 -104.11)"/><rect class="cls-1" x="378.79" y="277.87" width="40.2" height="13.52"/><path class="cls-1" d="M698.8,330.93H661.46v13c0,.16,0,.32,0,.48h23.45C690.44,341.62,695.71,337.35,698.8,330.93Z" transform="translate(-218.57 -104.11)"/><path class="cls-1" d="M404.09,403.94a22.74,22.74,0,0,1-1.51,8.59h30.86c3.56-3.42,6.07-7.32,6.48-11.36.07-.72.13-1.45.17-2.17H403.38A18.9,18.9,0,0,1,404.09,403.94Z" transform="translate(-218.57 -104.11)"/><path class="cls-1" d="M381.08,323.39a111.83,111.83,0,0,1-7.81-9.48H334.88c.23,4.52,2,9,5,13.52h45C383.44,326,382.16,324.6,381.08,323.39Z" transform="translate(-218.57 -104.11)"/><path class="cls-1" d="M402.12,395.51h38a33.33,33.33,0,0,0-3.2-13.53H393A55.62,55.62,0,0,1,402.12,395.51Z" transform="translate(-218.57 -104.11)"/><path class="cls-1" d="M372.65,361.47H419.8c-4.23-4.12-9.11-8.79-14-13.52h-47C363.29,352.43,368.17,357.14,372.65,361.47Z" transform="translate(-218.57 -104.11)"/><path class="cls-1" d="M388.51,422c-6.77.64-15.73-1.18-23.71-6H335.64v8.89h4.08a33.63,33.63,0,0,1,9-5c6-2.33,8.15-3.79,11.5-2.48s9,6.27,18.64,7.43,24.18,1.6,35.1-1.46A50,50,0,0,0,429.22,416H400.57C398,419.35,394,421.47,388.51,422Z" transform="translate(-218.57 -104.11)"/><path class="cls-1" d="M346.12,335.19c2.48,2.64,5.62,5.83,9.06,9.26h46.95c-4.94-4.76-9.76-9.43-13.83-13.52H342.42C343.54,332.33,344.78,333.75,346.12,335.19Z" transform="translate(-218.57 -104.11)"/><path class="cls-1" d="M342.68,382h-7v13.53h11.71A71.1,71.1,0,0,1,342.68,382Z" transform="translate(-218.57 -104.11)"/><path class="cls-1" d="M340.73,366.8h-5.09v11.69h6.3A63.62,63.62,0,0,1,340.73,366.8Z" transform="translate(-218.57 -104.11)"/><path class="cls-1" d="M352.68,404.81a61,61,0,0,1-3.57-5.81H335.64v13.53h24.2A38.59,38.59,0,0,1,352.68,404.81Z" transform="translate(-218.57 -104.11)"/><path class="cls-1" d="M386.61,375.1c1.05,1.07,2.15,2.2,3.26,3.39h45.18a46,46,0,0,0-5.62-7.32c-1.56-1.69-3.64-3.8-6.07-6.2H376.27C380.6,369.14,384.3,372.74,386.61,375.1Z" transform="translate(-218.57 -104.11)"/><path class="cls-1" d="M368.16,296.89H341.65a20,20,0,0,0-4.26,5.68,24.12,24.12,0,0,0-2.39,7.84h36C368.2,305.61,367.16,301.33,368.16,296.89Z" transform="translate(-218.57 -104.11)"/><path class="cls-1" d="M386.76,288.58a39.53,39.53,0,0,1,14.4,4.81h29v-7.72h-4.08s-7.57,6.41-14.56,6.26-16.17-7.43-32.63-7.43c-11.34,0-24.14,3.19-32.81,8.89h23.38C373.16,287,382.51,287.79,386.76,288.58Z" transform="translate(-218.57 -104.11)"/><path class="cls-1" d="M426.52,338.25h3.64v-7.32h-5.72C425.83,335.33,426.52,338.25,426.52,338.25Z" transform="translate(-218.57 -104.11)"/><path class="cls-1" d="M417.78,313.91a123.82,123.82,0,0,1,5.51,13.52h6.87V313.91Z" transform="translate(-218.57 -104.11)"/><path class="cls-1" d="M430.16,296.89H406a37.94,37.94,0,0,1,7,8.3c1.08,1.69,2.09,3.45,3,5.22h14.15Z" transform="translate(-218.57 -104.11)"/><rect class="cls-1" x="116.3" y="343.75" width="369.29" height="54.93"/><path class="cls-2" d="M354.57,486.12v-21.6h9.55a13.94,13.94,0,0,1,6.75,1.33,4.11,4.11,0,0,1,2.36,3.73,4,4,0,0,1-1.44,3.06,8,8,0,0,1-3.67,1.82v.06a8,8,0,0,1,4.48,1.71,4.36,4.36,0,0,1,1.67,3.44,5.41,5.41,0,0,1-2.58,4.71,12.45,12.45,0,0,1-7,1.74Zm5.91-18v5.12h2.6a5,5,0,0,0,2.88-.73,2.33,2.33,0,0,0,1.05-2q0-2.39-4.32-2.38Zm0,8.73v5.7h3.2a5.65,5.65,0,0,0,3.21-.79,2.45,2.45,0,0,0,1.16-2.14,2.3,2.3,0,0,0-1.14-2,5.88,5.88,0,0,0-3.19-.74Z" transform="translate(-218.57 -104.11)"/><path class="cls-2" d="M401.66,486.12h-6.44l-1.87-4.8H384l-1.85,4.8h-6.4l9.55-21.6h7ZM392,477.58l-2.82-7.26a8.06,8.06,0,0,1-.44-1.94h-.15a7.05,7.05,0,0,1-.45,1.88l-2.86,7.32Z" transform="translate(-218.57 -104.11)"/><path class="cls-2" d="M428.53,486.12h-6l-10.81-13.57a18.79,18.79,0,0,1-1.31-1.79h-.08a29.44,29.44,0,0,1,.15,3.49v11.87h-5.58v-21.6h6.37l10.41,13.15c.47.59.91,1.18,1.31,1.76h.08a18.52,18.52,0,0,1-.15-3v-12h5.58Z" transform="translate(-218.57 -104.11)"/><path class="cls-2" d="M456.33,486.12h-7.46l-7.65-9.38a9.86,9.86,0,0,1-.69-1.19h-.09v10.57h-5.91v-21.6h5.91v10.21h.09c.15-.28.39-.68.73-1.2l7.24-9h7.05l-9.15,10.31Z" transform="translate(-218.57 -104.11)"/><path class="cls-2" d="M480.26,486.5a13.69,13.69,0,0,1-9.18-3,9.85,9.85,0,0,1-3.55-7.87,10.51,10.51,0,0,1,3.6-8.29,14,14,0,0,1,9.55-3.16,13.33,13.33,0,0,1,9.09,3,10.08,10.08,0,0,1,3.46,8,10.35,10.35,0,0,1-3.59,8.21A13.8,13.8,0,0,1,480.26,486.5Zm.26-18.15a6.49,6.49,0,0,0-4.94,1.92,7.05,7.05,0,0,0-1.83,5.08,7,7,0,0,0,1.83,5.08,6.43,6.43,0,0,0,4.79,1.87,6.52,6.52,0,0,0,4.85-1.82,6.88,6.88,0,0,0,1.79-5,7.35,7.35,0,0,0-1.74-5.22A6.14,6.14,0,0,0,480.52,468.35Z" transform="translate(-218.57 -104.11)"/><path class="cls-2" d="M521.18,486.12h-6l-10.81-13.57a19.35,19.35,0,0,1-1.32-1.79H503a29.44,29.44,0,0,1,.15,3.49v11.87h-5.58v-21.6H504l10.41,13.15c.48.59.92,1.18,1.32,1.76h.07a18.52,18.52,0,0,1-.15-3v-12h5.58Z" transform="translate(-218.57 -104.11)"/><path class="cls-2" d="M536.31,485.29v-4.82a11.73,11.73,0,0,0,3.46,1.65,13.13,13.13,0,0,0,3.77.55,10.24,10.24,0,0,0,2-.16,5.52,5.52,0,0,0,1.39-.46,2.26,2.26,0,0,0,.83-.7,1.49,1.49,0,0,0,.27-.86,1.63,1.63,0,0,0-.44-1.13,4.5,4.5,0,0,0-1.19-.92,13.64,13.64,0,0,0-1.81-.81c-.69-.26-1.44-.53-2.25-.8a11.76,11.76,0,0,1-4.58-2.58,5.32,5.32,0,0,1-.68-6.57,6.32,6.32,0,0,1,2.24-2,11.42,11.42,0,0,1,3.28-1.15,20,20,0,0,1,4-.37,27.76,27.76,0,0,1,3.63.21,16.33,16.33,0,0,1,2.92.62v4.5a9.53,9.53,0,0,0-1.44-.66,11.83,11.83,0,0,0-1.6-.47,13.23,13.23,0,0,0-1.63-.28,14.24,14.24,0,0,0-1.55-.09,9.37,9.37,0,0,0-1.83.16,5.17,5.17,0,0,0-1.39.44,2.61,2.61,0,0,0-.88.68,1.49,1.49,0,0,0,0,1.87,3.66,3.66,0,0,0,1,.82,11.89,11.89,0,0,0,1.55.75c.61.25,1.3.5,2.07.76a26.76,26.76,0,0,1,2.83,1.15,10.46,10.46,0,0,1,2.15,1.38,5.56,5.56,0,0,1,1.37,1.75,5.37,5.37,0,0,1,.47,2.3,5.25,5.25,0,0,1-.83,3,6.15,6.15,0,0,1-2.26,2,11,11,0,0,1-3.32,1.1,23.22,23.22,0,0,1-4,.33,27,27,0,0,1-4.1-.3A14.37,14.37,0,0,1,536.31,485.29Z" transform="translate(-218.57 -104.11)"/><path class="cls-2" d="M576.94,468.48h-7.48v17.64h-5.93V468.48h-7.44v-4h20.85Z" transform="translate(-218.57 -104.11)"/><path class="cls-2" d="M602.48,486.12h-6.79l-4.08-5.56c-.3-.42-.59-.79-.87-1.13a7.61,7.61,0,0,0-.86-.85A3.59,3.59,0,0,0,589,478a2.8,2.8,0,0,0-1-.19h-1.59v8.27h-5.91v-21.6h9.37q9.54,0,9.55,5.88a5.09,5.09,0,0,1-.42,2.08,5.63,5.63,0,0,1-1.19,1.73,7.22,7.22,0,0,1-1.86,1.32,10.63,10.63,0,0,1-2.42.88v.06a3.88,3.88,0,0,1,1.13.49,7.11,7.11,0,0,1,1.06.79,11.2,11.2,0,0,1,1,1,12.75,12.75,0,0,1,.85,1Zm-16.1-17.95v6h2.56a4.79,4.79,0,0,0,3.06-.91,2.78,2.78,0,0,0,1.17-2.27q0-2.83-4.12-2.83Z" transform="translate(-218.57 -104.11)"/><path class="cls-2" d="M616,486.5a13.71,13.71,0,0,1-9.19-3,9.88,9.88,0,0,1-3.55-7.87,10.51,10.51,0,0,1,3.61-8.29q3.6-3.15,9.55-3.16a13.3,13.3,0,0,1,9.08,3,10.09,10.09,0,0,1,3.47,8,10.33,10.33,0,0,1-3.6,8.21A13.77,13.77,0,0,1,616,486.5Zm.25-18.15a6.51,6.51,0,0,0-4.94,1.92,7.05,7.05,0,0,0-1.83,5.08,7,7,0,0,0,1.83,5.08,7.22,7.22,0,0,0,9.64.05,6.84,6.84,0,0,0,1.8-5,7.35,7.35,0,0,0-1.74-5.22A6.16,6.16,0,0,0,616.27,468.35Z" transform="translate(-218.57 -104.11)"/><path class="cls-2" d="M656.94,486.12h-6l-10.82-13.57a18.79,18.79,0,0,1-1.31-1.79h-.08a29.44,29.44,0,0,1,.15,3.49v11.87h-5.58v-21.6h6.37l10.41,13.15c.47.59.91,1.18,1.31,1.76h.08a18.52,18.52,0,0,1-.15-3v-12h5.58Z" transform="translate(-218.57 -104.11)"/><path class="cls-2" d="M684.47,484.68a22.28,22.28,0,0,1-9.55,1.82q-6.33,0-10-2.89a9.57,9.57,0,0,1-3.65-7.94,10.16,10.16,0,0,1,4-8.3q4-3.21,10.61-3.21a25.85,25.85,0,0,1,7.35.95v4.56a17.22,17.22,0,0,0-7.42-1.44,8.93,8.93,0,0,0-6,2,7.25,7.25,0,0,0-.24,10.4,8.17,8.17,0,0,0,5.61,1.83,9.3,9.3,0,0,0,3.36-.5V477.7h-5.25v-3.88h11.16Z" transform="translate(-218.57 -104.11)"/><path class="cls-1" d="M1195.2,1763.72l-21.12-55.51H994.27l-21.12,56.72q-12.37,33.19-21.12,44.8t-28.67,11.62q-16.89,0-29.86-12.37t-13-28.06a62.65,62.65,0,0,1,3-18.71q3-9.64,10-26.85l113.14-287.22q4.82-12.37,11.61-29.72t14.48-28.81a58.82,58.82,0,0,1,20.22-18.56q12.51-7.08,30.92-7.09,18.7,0,31.23,7.09a60.14,60.14,0,0,1,20.21,18.25,128.23,128.23,0,0,1,13,24q5.26,12.82,13.42,34.24L1277.27,1733q13.57,32.58,13.57,47.37,0,15.38-12.82,28.2a42.15,42.15,0,0,1-30.92,12.83q-10.57,0-18.11-3.77a37.07,37.07,0,0,1-12.67-10.26q-5.13-6.48-11-19.91T1195.2,1763.72Zm-177.4-122.79H1150l-66.68-182.53Z" transform="translate(-218.57 -104.11)"/><path class="cls-1" d="M1441.35,1766.74V1626.45l-108-167.45q-14.17-22.63-20.06-35.3t-5.88-22q0-15.37,11.91-26.55t29.42-11.16q18.4,0,27.91,10.41t28.51,41.48l82.67,134.26,83.57-134.26q7.53-12.36,12.67-20.81a129.5,129.5,0,0,1,11.31-15.84,45.1,45.1,0,0,1,13.73-11.32q7.55-3.92,18.41-3.92,16.89,0,28.2,11t11.32,25.5a53.33,53.33,0,0,1-5.73,23.53q-5.74,11.76-19.61,32.58L1531,1626.45v140.29q0,27.45-12.67,41T1486,1821.35q-19.92,0-32.29-13.43T1441.35,1766.74Z" transform="translate(-218.57 -104.11)"/><path class="cls-1" d="M1740.06,1821.35a47,47,0,0,1-32.28-12.07q-13.58-12.06-13.58-33.79a43.71,43.71,0,0,1,13-31.68q13-13.27,32-13.28a44.7,44.7,0,0,1,32.43,13.13,42.86,42.86,0,0,1,13.43,31.83q0,21.42-13.43,33.64A45.36,45.36,0,0,1,1740.06,1821.35Z" transform="translate(-218.57 -104.11)"/></svg>